<svg width="315" height="438" viewBox="0 0 315 438" fill="none" xmlns="http://www.w3.org/2000/svg">
<path d="M157.403 89.9348C164.336 89.9348 174.584 91.8202 188.079 95.594C201.564 99.3649 218.256 105.01 238.062 112.509C255.339 119.08 272.473 126.02 289.454 133.323V133.323L293.266 134.989L292.784 139.124V139.125C290.826 156.076 286.15 189.684 277.092 224.397C263.509 276.479 232.315 351.097 161.001 410.73L161 410.731L157.403 413.764L153.806 410.731L153.804 410.73C82.4906 351.097 51.3268 276.479 37.7146 224.397L37.7136 224.396C28.6265 189.684 23.9804 156.076 22.0222 139.125V139.124L21.5388 134.988L25.3493 133.324C33.2131 129.933 53.9411 121.134 76.7429 112.51H76.7439C96.5501 105.011 113.242 99.3649 126.726 95.594C140.222 91.8201 150.47 89.9348 157.403 89.9348ZM157.403 95.0471C148.177 95.0471 127.072 98.9405 78.5534 117.307C56.112 125.792 35.8662 134.364 27.3825 137.991L27.0398 138.138L27.0827 138.509C30.3772 167.019 35.5686 195.277 42.6237 223.096L42.6247 223.099C56.1238 274.753 86.9325 348.15 157.082 406.818L157.403 407.086L157.723 406.818C227.873 348.15 258.681 274.753 272.18 223.128L272.181 223.125C279.247 195.307 284.449 167.049 287.753 138.538L287.796 138.169L287.454 138.022C278.969 134.364 258.693 125.792 236.252 117.307C187.733 98.9408 166.629 95.0472 157.403 95.0471Z" fill="#231F20" stroke="black"/>
<path d="M157.403 103.827C162.643 103.827 170.406 105.267 179.773 107.722C188.738 110.072 199.135 113.341 210.132 117.132L157.402 133.394L104.675 117.133C115.658 113.355 126.054 110.086 135.021 107.733C144.393 105.274 152.164 103.827 157.403 103.827Z" fill="#231F20" stroke="black"/>
<path d="M185.502 367.875C177.509 376.753 168.757 385.46 159.244 393.887L157.402 394.896L155.561 393.887C146.048 385.46 137.296 376.753 129.303 367.875L157.402 352.46L185.502 367.875ZM195.965 330.101L157.402 351.319L118.84 330.101L157.402 308.855L195.965 330.101ZM116.564 330.139L104.023 336.134C100.857 331.532 97.0325 325.775 94.0674 321.051L116.564 330.139ZM220.76 321.053C217.772 325.778 213.947 331.534 210.781 336.134L198.241 330.14L220.76 321.053ZM209.082 286.495L157.402 307.743L105.723 286.495L157.402 265.246L209.082 286.495ZM103.094 286.495L79.8428 296.064C75.7184 288.036 72.0321 280.11 68.7071 272.362L103.094 286.495ZM246.105 272.359C242.803 280.107 239.088 288.033 234.962 296.064L211.711 286.495L246.105 272.359ZM219.843 242.918L157.402 264.178L94.9502 242.904L157.402 221.629L219.843 242.918ZM92.1074 242.904L61.2539 253.4C58.3193 245.223 55.7753 237.309 53.5957 229.781L92.1074 242.904ZM261.187 229.866C259.058 237.361 256.514 245.194 253.553 253.342L222.942 242.917L261.187 229.866ZM226.336 199.313L157.402 220.577L88.4688 199.313L157.402 178.047L226.336 199.313ZM85.0791 199.312L48.5899 210.58C46.6087 202.288 44.8894 194.181 43.4063 186.436L85.0791 199.312ZM271.425 186.437C269.916 194.183 268.196 202.288 266.215 210.58L229.726 199.313L271.425 186.437ZM232.825 155.721L157.402 177.004L81.9463 155.706L157.401 134.438L232.825 155.721ZM278.236 143.794C277.439 150.087 276.325 157.903 274.944 166.712L235.99 155.72L278.236 143.794ZM77.8565 155.706L39.8574 166.448C38.4688 157.879 37.4147 150.276 36.6231 144.08L77.8565 155.706ZM160.003 26.8215V39.0374L160.847 38.2366C164.516 34.7534 169.401 32.8397 174.46 32.9036C179.352 32.9654 184.034 34.8722 187.575 38.2307L183.892 41.9387C181.964 40.1359 179.57 38.902 176.976 38.3821C174.217 37.8292 171.356 38.1076 168.755 39.1819C166.154 40.2563 163.93 42.0782 162.365 44.4172C160.801 46.7563 159.966 49.5075 159.966 52.3215C159.966 55.1354 160.801 57.8859 162.365 60.2249C163.93 62.5639 166.154 64.3868 168.755 65.4612C171.356 66.5354 174.217 66.8138 176.976 66.261C179.571 65.7409 181.965 64.5059 183.893 62.7024L187.574 66.3831C184.038 69.7392 179.362 71.6455 174.475 71.7073C169.421 71.7712 164.542 69.8583 160.877 66.3772L160.032 65.5754V77.7629H154.773V65.5764L153.93 66.3772C150.266 69.8528 145.389 71.7589 140.34 71.6897C135.457 71.6226 130.787 69.7132 127.259 66.3547L130.941 62.6731C132.863 64.4661 135.227 65.6926 137.816 66.2073C140.568 66.7542 143.421 66.4727 146.013 65.3987C148.605 64.3247 150.82 62.506 152.379 60.1731C153.937 57.8403 154.77 55.0977 154.77 52.2922C154.77 49.4865 153.938 46.7433 152.379 44.4104C150.82 42.0776 148.605 40.2598 146.013 39.1858C143.421 38.1118 140.568 37.8303 137.816 38.3772C135.228 38.8916 132.838 40.1164 130.912 41.9104L127.23 38.2297C130.767 34.876 135.441 32.9705 140.326 32.9036C145.378 32.8344 150.258 34.7374 153.93 38.2083L154.773 39.0051V26.8215H160.003Z" fill="#231F20" stroke="black"/>
<path d="M161.028 1.90137L161.045 1.90723L161.062 1.91211C161.066 1.91377 161.083 1.91976 161.116 1.93164C161.157 1.94625 161.216 1.96679 161.291 1.99414C161.442 2.04899 161.658 2.12937 161.938 2.23438C162.499 2.44444 163.313 2.7549 164.362 3.16504C166.461 3.98551 169.499 5.20577 173.323 6.82715C180.973 10.0701 191.77 14.9161 204.501 21.3682C229.964 34.2734 263.154 53.601 294.366 79.3799H294.367C296.993 81.5392 301.763 85.6441 305.895 89.2275C307.959 91.0184 309.864 92.6776 311.259 93.8965C311.956 94.5058 312.526 95.0051 312.926 95.3555C313.339 95.7181 313.546 95.9009 313.546 95.9004L313.569 95.9238L314.123 96.4082L314.191 97.0889C314.195 97.1587 314.204 97.281 314.213 97.4219C314.226 97.6327 314.245 97.9418 314.263 98.3545C314.299 99.1806 314.335 100.424 314.335 102.128C314.335 102.65 314.099 157.053 295.253 229.222V229.223C280.267 286.653 245.364 368.517 164.438 432.214C164.418 432.227 164.402 432.236 164.396 432.24C164.364 432.264 164.322 432.295 164.273 432.332C164.175 432.406 164.038 432.51 163.87 432.638C163.533 432.894 163.063 433.25 162.504 433.667C161.385 434.502 159.907 435.579 158.411 436.581L158.402 436.587L158.394 436.594L157.971 436.905H156.878L156.418 436.606C153.421 434.569 150.522 432.278 150.391 432.18C70.7336 369.508 35.6685 289.205 20.2705 231.904L19.5527 229.192C0.735479 157.02 0.500075 102.674 0.5 102.099C0.5 100.41 0.536047 99.1742 0.572266 98.3555C0.590368 97.9464 0.608576 97.6406 0.62207 97.4346C0.628802 97.3318 0.634707 97.2532 0.638672 97.1982C0.640557 97.1721 0.642949 97.1316 0.644531 97.0996L0.645508 97.1006L0.689453 96.4072L1.22656 95.9609L1.24414 95.9463L1.25977 95.9297C1.2551 95.9344 1.30011 95.8951 1.4209 95.7881C1.53091 95.6907 1.68874 95.5509 1.88965 95.374C2.2917 95.0201 2.86413 94.5169 3.56348 93.9043C4.96229 92.6791 6.86863 91.0142 8.93359 89.2197C13.0656 85.6289 17.8273 81.5243 20.4385 79.3799H20.4395C51.6517 53.601 84.849 34.2732 110.327 21.3643C123.065 14.9105 133.871 10.0625 141.531 6.81543C145.361 5.19195 148.405 3.96785 150.51 3.14453C151.562 2.73287 152.381 2.42169 152.945 2.20996C153.227 2.10424 153.445 2.02351 153.598 1.96777C153.674 1.93987 153.734 1.91849 153.776 1.90332C153.82 1.88777 153.838 1.88058 153.84 1.87988L153.853 1.87598L153.865 1.87109L157.403 0.53418L161.028 1.90137ZM310.743 102.12L310.685 98.376L310.682 98.1533L310.513 98.0068C307.593 95.4666 296.617 85.8659 292.076 82.1455C230.448 31.2041 160.546 5.50254 159.848 5.25977L157.572 4.44238L157.402 4.38184L157.233 4.44336L155.04 5.23242L155.032 5.23535L155.023 5.23828L155.022 5.23926C155.021 5.2398 155.02 5.24043 155.018 5.24121C155.014 5.24273 155.008 5.24461 155.002 5.24707C154.989 5.25216 154.971 5.25916 154.948 5.26758C154.903 5.2845 154.843 5.30744 154.765 5.33691C154.609 5.39572 154.387 5.47942 154.103 5.58789C153.534 5.80483 152.715 6.12112 151.663 6.53613C149.559 7.36632 146.527 8.59264 142.716 10.2148C135.094 13.4594 124.359 18.2876 111.721 24.6982C86.4461 37.5185 53.5464 56.6716 22.6982 82.1465C18.1872 85.8667 7.18511 95.4655 4.29102 98.0088L4.12988 98.1504L4.12109 98.3643C4.08403 99.3055 4.06409 100.248 4.06055 101.189L4.0625 102.132C4.06345 102.909 4.30895 156.749 23.001 228.305C37.7593 284.781 71.892 365.025 150.72 427.894L152.59 429.376C152.591 429.377 152.593 429.378 152.595 429.38C152.599 429.383 152.605 429.388 152.613 429.395C152.63 429.407 152.654 429.427 152.686 429.451C152.748 429.5 152.84 429.572 152.958 429.664C153.194 429.848 153.535 430.11 153.949 430.426C154.778 431.057 155.909 431.901 157.114 432.754L157.403 432.958L157.691 432.754C158.896 431.902 160.026 431.065 160.855 430.438C161.27 430.124 161.611 429.862 161.849 429.676C161.967 429.583 162.062 429.507 162.128 429.453C162.16 429.427 162.189 429.402 162.212 429.383C162.219 429.376 162.229 429.366 162.239 429.356C242.382 366.274 276.932 285.22 291.805 228.305C310.533 156.611 310.743 102.701 310.743 102.128V102.12Z" fill="#231F20" stroke="black"/>
</svg>
